<?xml version="1.0" encoding="UTF-8"?>
<svg version="1.1" xmlns="http://www.w3.org/2000/svg" width="500" height="500">
<path d="M0 0 C7.52473518 5.84226798 12.32745295 13.02414541 13.59765625 22.5703125 C14.0961934 34.77643167 9.20680308 44.88436831 4.15625 55.66015625 C-1.89737792 68.64098469 -6.36650751 81.01484703 -1.61328125 95.2109375 C0.60860434 101.10730126 3.23296853 106.79590921 5.99145508 112.45703125 C12.68499366 126.2907016 13.64995166 138.59865712 13.21875 153.72265625 C10.70852537 150.59798857 8.95497528 147.36050944 7.15625 143.78515625 C-7.24224199 116.82948886 -31.3017122 100.2553082 -59.78125 90.72265625 C-59.20566776 85.4001926 -58.30655663 80.43929153 -56.89526367 75.25952148 C-56.61207527 74.21126442 -56.61207527 74.21126442 -56.32316589 73.14183044 C-55.70363413 70.85354573 -55.07647613 68.56742785 -54.44921875 66.28125 C-54.01134083 64.66965169 -53.5739565 63.05791919 -53.13703918 61.44606018 C-51.98763613 57.21075506 -50.83179696 52.97723336 -49.67449951 48.74407959 C-48.510417 44.48208587 -47.3520169 40.21854925 -46.19335938 35.95507812 C-44.88350225 31.13599169 -43.57317058 26.31704181 -42.25810242 21.49937439 C-39.73363451 12.24887889 -37.24073957 2.99066113 -34.78125 -6.27734375 C-22.47759672 -8.42312857 -10.61957524 -7.01650507 0 0 Z " fill="#3B82F6" transform="translate(233.78125,174.27734375)"/>
<path d="M0 0 C0.79752686 0.18393311 1.59505371 0.36786621 2.41674805 0.55737305 C3.017854 0.69957275 3.61895996 0.84177246 4.23828125 0.98828125 C6.19702065 8.12403396 8.15303563 15.26052746 10.10555267 22.39798546 C11.01221968 25.71198335 11.91983165 29.02571643 12.82958984 32.33886719 C13.87486952 36.1457201 14.91606337 39.95368443 15.95703125 43.76171875 C16.44919128 45.55082169 16.44919128 45.55082169 16.95129395 47.37606812 C17.25160522 48.47705841 17.5519165 49.57804871 17.86132812 50.71240234 C18.12780151 51.68503021 18.3942749 52.65765808 18.66882324 53.65975952 C19.23828125 55.98828125 19.23828125 55.98828125 19.23828125 57.98828125 C17.42457031 58.60703125 17.42457031 58.60703125 15.57421875 59.23828125 C-16.71641331 70.51300804 -38.64391405 90.4970568 -53.76171875 120.98828125 C-55.24315331 118.02541214 -54.14046755 116.18072102 -53.32421875 112.98828125 C-49.91194614 97.81732103 -51.06229185 81.51390238 -53.30078125 66.25 C-55.60310588 47.80865268 -55.19790656 31.16322277 -43.76171875 15.98828125 C-42.89546875 14.68890625 -42.89546875 14.68890625 -42.01171875 13.36328125 C-31.32504731 2.08290584 -15.24693636 -3.55527641 0 0 Z " fill="#3B82F6" transform="translate(306.76171875,207.01171875)"/>
<path d="M0 0 C1.52157311 0.28778244 3.04222053 0.58046001 4.5625 0.875 C5.40941406 1.03742188 6.25632812 1.19984375 7.12890625 1.3671875 C8.55009766 1.68042969 8.55009766 1.68042969 10 2 C11.15741699 2.17756836 12.31483398 2.35513672 13.50732422 2.53808594 C17 4 17 4 18.61157227 7.32568359 C19.02301916 8.88382429 19.4004323 10.45113119 19.75390625 12.0234375 C19.98324356 12.92202484 20.21258087 13.82061218 20.4488678 14.74642944 C20.99411789 16.88563048 21.52671385 19.02807676 22.05010986 21.17272949 C23.136979 25.55191192 24.28933234 29.91113592 25.45263672 34.27050781 C27.58034998 42.25724734 29.67855825 50.25121862 31.75810814 58.25062943 C33.22385906 63.88863005 34.69796778 69.52434432 36.17882442 75.15839577 C37.13570531 78.80626112 38.08522315 82.4560131 39.03268623 86.10633469 C39.48565448 87.8462261 39.94140693 89.58539517 40.40000725 91.32381058 C41.03483019 93.7329624 41.65920504 96.14458861 42.28100586 98.55712891 C42.47154037 99.27076096 42.66207489 99.98439301 42.85838318 100.71965027 C43.6986498 104.02382054 44.10222191 105.69333426 43 109 C41.27330078 109.05607422 41.27330078 109.05607422 39.51171875 109.11328125 C18.93257769 109.90789325 -1.39700486 112.59628817 -20 122 C-20.86882812 122.41765625 -21.73765625 122.8353125 -22.6328125 123.265625 C-29.76428716 126.88102441 -35.29686879 131.43167008 -41 137 C-41.9075 137.86625 -42.815 138.7325 -43.75 139.625 C-46.61828539 142.65263458 -49.32064479 145.80503005 -52 149 C-52.33 148.34 -52.66 147.68 -53 147 C-52.00307434 144.79384043 -50.9588448 142.77558109 -49.75 140.6875 C-49.21234009 139.75623291 -49.21234009 139.75623291 -48.66381836 138.80615234 C-37.96433168 120.90792225 -21.88032871 107.25818097 -2.6875 99.25 C-2.07390625 98.99275146 -1.4603125 98.73550293 -0.828125 98.47045898 C6.91373143 95.41051749 15.00668702 93.29376809 23 91 C22.72961914 89.96858887 22.45923828 88.93717773 22.18066406 87.87451172 C21.79230889 86.39290596 21.40396344 84.91129765 21.015625 83.4296875 C20.80378067 82.62146042 20.59193634 81.81323334 20.37367249 80.98051453 C19.17424876 76.40382797 17.97557866 71.82694551 16.77807617 67.24975586 C16.26742284 65.29801237 15.75676188 63.34627087 15.24609375 61.39453125 C14.98479172 60.3958049 14.72348969 59.39707855 14.45426941 58.36808777 C12.79036912 52.01127265 11.12075416 45.65598612 9.44723511 39.30169678 C8.3359564 35.08004321 7.22760779 30.85762349 6.11975098 26.6350708 C5.58174999 24.58732335 5.04244394 22.53991834 4.50183105 20.49285889 C3.74395675 17.62241144 2.99061381 14.75081033 2.23828125 11.87890625 C1.89688866 10.59266609 1.89688866 10.59266609 1.54859924 9.28044128 C1.24090858 8.10050346 1.24090858 8.10050346 0.92700195 6.89672852 C0.7470015 6.21288589 0.56700104 5.52904327 0.38154602 4.82447815 C0 3 0 3 0 0 Z " fill="#3B82F6" transform="translate(310,179)"/>
<path d="M0 0 C-0.28592514 1.08106018 -0.57185028 2.16212036 -0.86643982 3.27593994 C-3.55946458 13.45819415 -6.2522065 23.64052311 -8.94467068 33.82292557 C-10.32893799 39.05793211 -11.71330534 44.29291216 -13.09790039 49.52783203 C-14.43381424 54.57871135 -15.76946653 59.62965976 -17.1049366 64.68065643 C-17.61478399 66.60880757 -18.12472602 68.53693368 -18.63476372 70.46503448 C-19.34847433 73.16314714 -20.06185005 75.86134814 -20.77514648 78.55957031 C-20.98661819 79.35870346 -21.1980899 80.15783661 -21.41596985 80.98118591 C-22.2972547 84.31609294 -23.16870396 87.65229469 -24 91 C-22.989375 91.061875 -21.97875 91.12375 -20.9375 91.1875 C4.08112597 94.44124046 27.66606648 110.73407898 42.94921875 130.15234375 C46.33305049 134.85103582 49.65649056 139.69023035 52 145 C51.67 145.99 51.34 146.98 51 148 C50.30777344 147.07380859 50.30777344 147.07380859 49.6015625 146.12890625 C32.87401315 124.40953881 9.23952125 113.70384409 -17.375 109.8125 C-23.96292713 109.00394971 -30.55523226 108.62737661 -37.18701172 108.42895508 C-42.78719902 108.21280098 -42.78719902 108.21280098 -45 106 C-44.52833557 103.04919434 -44.52833557 103.04919434 -43.50219727 99.20898438 C-43.31866196 98.50918457 -43.13512665 97.80938477 -42.94602966 97.08837891 C-42.33068178 94.75370944 -41.6985909 92.42391176 -41.06640625 90.09375 C-40.63089669 88.45522564 -40.1964196 86.81642655 -39.76292419 85.17736816 C-38.61042014 80.83122956 -37.44370476 76.48902633 -36.27410889 72.14746094 C-35.11495375 67.83495445 -33.96902273 63.51894166 -32.82226562 59.203125 C-31.484287 54.16767962 -30.1420864 49.13355276 -28.7784729 44.10498047 C-26.77252171 36.70057125 -24.80609985 29.29743449 -23.02294922 21.8359375 C-22.72372055 20.61958618 -22.42449188 19.40323486 -22.11619568 18.15002441 C-21.57548104 15.93826302 -21.0571516 13.72084935 -20.56654358 11.49743652 C-18.86695882 4.66739055 -18.86695882 4.66739055 -16.32015991 2.70684814 C-14.44067383 1.87792969 -14.44067383 1.87792969 -11 1 C-10.23171875 0.74734375 -9.4634375 0.4946875 -8.671875 0.234375 C-3.33333333 -1.11111111 -3.33333333 -1.11111111 0 0 Z " fill="#3B82F6" transform="translate(190,180)"/>
<path d="M0 0 C2.28050434 0.4307954 4.54971381 0.92166728 6.8125 1.4375 C8.07707031 1.70433594 9.34164062 1.97117188 10.64453125 2.24609375 C14 4 14 4 15.4152832 7.51635742 C17.71084061 15.11675738 19.68493818 22.81639737 21.7109375 30.4921875 C22.16525327 32.20507154 22.61981731 33.91788974 23.07461548 35.63064575 C24.26872755 40.13039465 25.45939732 44.63104742 26.64935303 49.13189697 C27.84481468 53.65100144 29.04368344 58.16920166 30.2421875 62.6875 C34.57979228 79.0457386 34.57979228 79.0457386 36.15549278 85.02177238 C37.23465124 89.11433154 38.32243519 93.20435374 39.42169189 97.29156494 C39.65405863 98.16081667 39.88642536 99.0300684 40.12583351 99.92566109 C40.57276256 101.59747204 41.02252896 103.26852782 41.47553062 104.93870354 C42.30100887 108.03757501 43 110.77795537 43 114 C41.88109375 113.86722656 40.7621875 113.73445313 39.609375 113.59765625 C3.52203776 109.53039655 -37.60424012 107.35505902 -69.57421875 127.64453125 C-72 129 -72 129 -75 129 C-60.36274688 109.48366251 -34.68736923 101.20948458 -11.5453949 97.41345215 C-4.79722755 96.62650334 1.96818703 96.79422785 8.75 96.875 C10.23697307 96.88506027 11.72395281 96.89418068 13.2109375 96.90234375 C16.80743323 96.924092 20.403672 96.95844982 24 97 C23.69932617 95.85852005 23.39865234 94.7170401 23.08886719 93.54096985 C20.25697067 82.78669736 17.43151468 72.0307509 14.61236572 61.27312946 C13.1627861 55.74250745 11.71093894 50.2125015 10.25390625 44.68383789 C8.8480427 39.34899563 7.44814026 34.0126219 6.05236816 28.67513084 C5.51863898 26.63841183 4.98275929 24.60225512 4.44470215 22.56667519 C3.69181965 19.71688585 2.94658763 16.86519846 2.203125 14.01293945 C1.97870728 13.17064789 1.75428955 12.32835632 1.52307129 11.46054077 C0.51328828 7.5553364 -0.28955936 4.07266654 0 0 Z " fill="#3B82F6" transform="translate(338,197)"/>
<path d="M0 0 C1.40332719 4.20998158 0.0503571 7.49935862 -1.07373047 11.64648438 C-1.30606384 12.5296785 -1.53839722 13.41287262 -1.777771 14.3228302 C-2.54959869 17.24864692 -3.33330232 20.17114276 -4.1171875 23.09375 C-4.65500888 25.12233196 -5.19211921 27.15110256 -5.72854614 29.18005371 C-7.14442435 34.52712795 -8.57050933 39.87143021 -9.99853516 45.215271 C-11.44961544 50.6534874 -12.89013514 56.09449916 -14.33203125 61.53515625 C-16.43886185 69.47593783 -18.54796658 77.41610899 -20.66748047 85.35351562 C-20.88987396 86.18893387 -21.11226746 87.02435211 -21.34140015 87.88508606 C-22.16158801 90.95129052 -22.99602312 93.98806935 -24 97 C-22.71089722 96.9685791 -22.71089722 96.9685791 -21.39575195 96.93652344 C12.95775834 96.21189162 44.29407969 100.12077268 71 124 C72.6794286 125.65380625 74.34965022 127.31717465 76 129 C75.67 129.66 75.34 130.32 75 131 C74.05253906 130.34644531 74.05253906 130.34644531 73.0859375 129.6796875 C38.7257705 106.80591639 -3.77401506 109.73353622 -43 114 C-37.34549111 90.9973917 -31.36614395 68.09089813 -25.23773193 45.21044922 C-24.32025298 41.7823637 -23.40544217 38.35356843 -22.49066257 34.92476177 C-21.60358906 31.60037415 -20.7154889 28.27626158 -19.8270092 24.95224953 C-19.40619257 23.37781553 -18.98556233 21.80333171 -18.56512642 20.22879601 C-17.98522037 18.05811379 -17.40406567 15.88776999 -16.82250977 13.7175293 C-16.49356216 12.48834274 -16.16461456 11.25915619 -15.82569885 9.99272156 C-15.27030583 7.97971564 -14.6603525 5.98105749 -14 4 C-11.61933199 3.12012394 -9.38518099 2.42741106 -6.9375 1.8125 C-6.27427734 1.63525391 -5.61105469 1.45800781 -4.92773438 1.27539062 C-3.28812574 0.83894804 -1.64440762 0.41799781 0 0 Z " fill="#3B82F6" transform="translate(161,197)"/>
<path d="M0 0 C5.01709234 3.01403476 8.46811101 6.51454595 10.82421875 11.93359375 C12.739047 19.9120448 11.00663283 25.94220069 6.94921875 32.80859375 C2.67782884 36.85517367 -2.56705367 39.23915685 -8.48828125 39.49609375 C-16.62681438 38.59181229 -20.81104344 36.33098911 -26.078125 29.99609375 C-29.69476739 24.79651513 -28.93700232 18.10560869 -28.42578125 12.05859375 C-26.76636816 6.3406161 -22.45251876 2.88103106 -17.42578125 0.05859375 C-11.92870855 -1.77376382 -5.4593088 -2.11866895 0 0 Z " fill="#3B82F6" transform="translate(284.42578125,152.94140625)"/>
<path d="" fill="#3B82F6" transform="translate(0,0)"/>
</svg>
